<svg width="18" height="18" viewBox="0 0 200 200" fill="none" xmlns="http://www.w3.org/2000/svg">
  <path d="
    M 100,195
    C 85,168 28,95 8,30
    C 2,16 8,12 16,20
    C 28,35 45,52 56,64
    C 64,72 74,72 84,60
    C 90,46 95,22 100,4
    C 105,22 110,46 116,60
    C 126,72 136,72 144,64
    C 155,52 172,35 184,20
    C 192,12 198,16 192,30
    C 172,95 115,168 100,195
    Z"
    fill="black"/>
  <path d="M 100,158 C 90,125 78,92 64,68"
    fill="none" stroke="white" stroke-width="5" stroke-linecap="round"/>
  <path d="M 100,158 C 110,125 122,92 136,68"
    fill="none" stroke="white" stroke-width="5" stroke-linecap="round"/>
</svg>
