<svg width="200" height="200" viewBox="0 0 200 200" fill="none" xmlns="http://www.w3.org/2000/svg">
  <rect width="200" height="200" rx="40" fill="#1a6d3a"/>
  <path d="
    M 100,175
    C 88,153 45,95 30,45
    C 25,33 30,30 36,36
    C 45,47 58,58 67,67
    C 73,73 81,73 88,64
    C 93,53 96,36 100,22
    C 104,36 107,53 112,64
    C 119,73 127,73 133,67
    C 142,58 155,47 164,36
    C 170,30 175,33 170,45
    C 155,95 112,153 100,175
    Z"
    fill="white"/>
  <path d="M 100,142 C 93,118 82,94 72,74"
    fill="none" stroke="#1a6d3a" stroke-width="5" stroke-linecap="round"/>
  <path d="M 100,142 C 107,118 118,94 128,74"
    fill="none" stroke="#1a6d3a" stroke-width="5" stroke-linecap="round"/>
</svg>
